# xmcd
#
# Track frame offsets: 
#        150
#        10645
#        23960
#        34895
#        48233
#        58808
#        75110
#        85633
#        99910
#        115028
#        127195
#        141758
#
# Disc length: 2107 seconds
#
# Revision: 0
# Processed by: cddbd v1.5.2PL0 Copyright (c) Steve Scherf et al.
# Submitted via: ExactAudioCopy v0.99pb4
#
DISCID=8908390c
DTITLE=Paul Kelly - Dirt
DYEAR=1972
DGENRE=Soul
TTITLE0=(He Ain't Nothin' But) Dirt
TTITLE1=509
TTITLE2=Hot Runnin' Soul
TTITLE3=Hangin' on in There
TTITLE4=A Helping Hand
TTITLE5=Soul Flow
TTITLE6=Here Come Ole Jezebel
TTITLE7=Poor But Proud
TTITLE8=The Day After Forever
TTITLE9=Travelin' Man
TTITLE10=What's Happenin' to Me and You
TTITLE11=Stealin' in the Name of the Lord
EXTD=
EXTT0=
EXTT1=
EXTT2=
EXTT3=
EXTT4=
EXTT5=
EXTT6=
EXTT7=
EXTT8=
EXTT9=
EXTT10=
EXTT11=
PLAYORDER=
